:SAMPLES-PER-SECOND 30
:FULLY-SPECIFIED
:DEGREES
336
root  -7.86387 39.7094 40.392 6.66878 -7.68208 0.377822
RightUpLeg  -17.203 -3.62397 2.86088
RightLeg  15.95 2.99118 -2.34251
RightFoot  -7.70734 -0.0197613 0.816541
RightToes  -5.82073e-011 -3.18055e-015 -2.98177e-016
Spine  9.38049 -1.06993 -0.352744
Spine1  4.04231 -2.00341 3.64204
HEad  -21.6285 8.17711 1.79128
LeftShoulder1  -3.88251e-019 9.70628e-020 -3.87848e-018
LeftArm  -13.3443 58.6753 -77.0436
LeftForeArm  -28.8824 -67.479 27.1899
LeftHand  -1.83681 -4.97219 21.4193
RightShoulder  5.56362 9.15439 27.9454
RightArm  53.7022 -61.2449 -7.2736
RightForeArm  -58.8887 66.8587 -75.8502
RightHand  -3.78361 9.98695 -27.9345
LeftUpLeg  -16.9513 -1.40232 -4.46638
LeftLeg  16.6045 1.4722 6.07139
LeftFoot  -7.84689 0.000540161 -0.473082
LeftToes  5.79026e-011 9.70705e-012 -3.73859e-011
337
root  -7.91995 39.5614 40.1609 8.98482 -7.57054 0.306155
RightUpLeg  -20.9091 -5.29705 3.74866
RightLeg  17.5763 4.58631 -2.33783
RightFoot  -8.25462 -0.00410149 0.589311
RightToes  -5.82073e-011 -3.18055e-015 -2.98177e-016
Spine  11.6787 -1.44652 -0.232206
Spine1  2.45757 -2.57815 4.08606
HEad  -23.988 9.12819 2.08059
LeftShoulder1  -3.88251e-019 9.70628e-020 -3.87848e-018
LeftArm  -17.6492 63.5199 -78.6076
LeftForeArm  -29.6622 -66.6397 25.7623
LeftHand  -1.81919 -5.11787 20.9399
RightShoulder  5.36231 9.00149 27.1019
RightArm  62.4597 -64.3159 -18.0055
RightForeArm  -58.8058 66.4239 -70.8182
RightHand  -3.68931 8.93934 -29.1579
LeftUpLeg  -20.7533 -0.923923 -4.35151
LeftLeg  18.2937 0.956465 6.37837
LeftFoot  -7.99899 0.00674092 -0.627914
LeftToes  5.79026e-011 9.70705e-012 -3.73859e-011
338
root  -7.96885 39.286 39.8766 11.4917 -7.39601 0.163445
RightUpLeg  -25.6152 -7.80921 5.52172
RightLeg  20.3545 7.41695 -2.71635
RightFoot  -9.48619 0.0183799 0.22416
RightToes  -5.82073e-011 -3.18055e-015 -2.98177e-016
Spine  14.7492 -1.82645 0.472325
Spine1  0.264529 -3.08857 4.26815
HEad  -26.6259 10.018 2.21609
LeftShoulder1  -3.88251e-019 9.70628e-020 -3.87848e-018
LeftArm  -22.3306 67.8233 -80.4353
LeftForeArm  -27.2448 -64.0138 22.5185
LeftHand  -1.96533 -5.03756 22.7033
RightShoulder  5.39836 9.02707 27.2563
RightArm  73.3325 -65.6091 -31.6715
RightForeArm  -57.0282 65.7166 -65.7988
RightHand  -3.31807 7.06146 -30.0958
LeftUpLeg  -25.6533 -0.594691 -4.14951
LeftLeg  21.5441 0.227734 7.01971
LeftFoot  -8.77546 0.0148444 -1.03933
LeftToes  5.79026e-011 9.70705e-012 -3.73859e-011
339
root  -7.99644 38.808 39.5716 13.7991 -7.41794 -0.0861192
RightUpLeg  -31.2601 -10.3097 7.91163
RightLeg  24.9676 10.74 -3.40135
RightFoot  -11.4629 0.0364324 -0.19828
RightToes  -5.82073e-011 -3.18055e-015 -2.98177e-016
Spine  18.6904 -2.10649 1.4889
Spine1  -2.31659 -3.50326 4.56506
HEad  -29.8451 11.1648 2.03226
LeftShoulder1  -3.88251e-019 9.70628e-020 -3.87848e-018
LeftArm  -27.4657 71.0732 -82.4825
LeftForeArm  -24.0439 -59.639 18.4673
LeftHand  -2.59848 -5.52713 28.2342
RightShoulder  5.54631 9.13888 27.8768
RightArm  85.2181 -64.9212 -46.2318
RightForeArm  -57.0571 65.4041 -63.758
RightHand  -3.13939 5.75421 -31.6769
LeftUpLeg  -31.3597 -1.38027 -3.37345
LeftLeg  26.9303 -0.950393 7.9908
LeftFoot  -10.6416 0.0199728 -2.41233
LeftToes  5.79026e-011 9.70705e-012 -3.73859e-011
340
root  -8.00541 38.0481 39.2969 15.8713 -7.90188 -0.358428
RightUpLeg  -37.5607 -10.0413 9.09146
RightLeg  31.716 11.4781 -3.91701
RightFoot  -13.9843 0.0380527 -0.586035
RightToes  -5.82073e-011 -3.18055e-015 -2.98177e-016
Spine  22.2037 -2.20086 2.29746
Spine1  -3.90464 -3.7553 4.95739
HEad  -33.7223 12.6319 1.52358
LeftShoulder1  -3.88251e-019 9.70628e-020 -3.87848e-018
LeftArm  -33.0961 73.02 -84.524
LeftForeArm  -23.1497 -54.0387 14.5662
LeftHand  -3.47685 -6.30288 34.9912
RightShoulder  5.68121 9.26829 28.3762
RightArm  95.6807 -62.8901 -58.6582
RightForeArm  -59.8407 65.7481 -65.178
RightHand  -3.24466 5.50779 -33.3771
LeftUpLeg  -37.5523 -3.11985 -2.01486
LeftLeg  34.0766 -2.27335 9.2835
LeftFoot  -13.211 -0.0387773 -3.97539
LeftToes  5.79026e-011 9.70705e-012 -3.73859e-011
341
root  -8.02432 37.0187 39.1048 17.829 -8.97498 -0.595685
RightUpLeg  -44.1876 -9.1262 9.91559
RightLeg  39.5134 12.0879 -4.30489
RightFoot  -16.6704 0.014402 -1.23257
RightToes  -5.82073e-011 -3.18055e-015 -2.98177e-016
Spine  24.3556 -1.96024 2.39111
Spine1  -3.94895 -3.76594 5.63992
HEad  -37.6418 14.1113 0.495923
LeftShoulder1  -3.88251e-019 9.70628e-020 -3.87848e-018
LeftArm  -37.3059 73.5259 -85.6363
LeftForeArm  -22.9804 -47.1839 11.076
LeftHand  -3.61248 -5.99519 37.1379
RightShoulder  5.76845 9.42248 28.5472
RightArm  102.275 -60.8065 -67.553
RightForeArm  -59.6915 66.0724 -67.6026
RightHand  -3.34073 6.17078 -32.495
LeftUpLeg  -43.7474 -4.23307 -0.863085
LeftLeg  41.7289 -3.19094 11.0553
LeftFoot  -15.9714 -0.142453 -4.10761
LeftToes  5.79026e-011 9.70705e-012 -3.73859e-011
342
root  -8.07061 35.8959 39.0186 19.5343 -10.3641 -0.880318
RightUpLeg  -50.1612 -7.70179 10.5137
RightLeg  46.8986 12.5539 -4.77747
RightFoot  -19.0912 -0.0436612 -2.04225
RightToes  -5.82073e-011 -3.18055e-015 -2.98177e-016
Spine  25.6411 -1.4066 1.92578
Spine1  -3.47598 -3.61693 6.94908
HEad  -40.8713 15.414 -0.713804
LeftShoulder1  -3.88251e-019 9.70628e-020 -3.87848e-018
LeftArm  -34.8241 71.9006 -83.4165
LeftForeArm  -21.4815 -37.9915 7.85755
LeftHand  -2.47589 -3.60753 32.5249
RightShoulder  5.78959 9.55334 28.3943
RightArm  103.701 -60.2891 -72.7247
RightForeArm  -52.2788 65.7163 -67.1951
RightHand  -3.36527 7.72825 -29.0452
LeftUpLeg  -49.1474 -3.79844 -0.472391
LeftLeg  48.5907 -3.74853 13.1777
LeftFoot  -19.0939 -0.22874 -3.37032
LeftToes  5.79026e-011 9.70705e-012 -3.73859e-011
343
root  -8.13288 34.8585 39.0322 20.5878 -11.3731 -1.2136
RightUpLeg  -54.69 -6.50541 10.9746
RightLeg  53.1965 12.7479 -5.50978
RightFoot  -21.3107 -0.115115 -2.60906
RightToes  -5.82073e-011 -3.18055e-015 -2.98177e-016
Spine  27.0386 -0.88374 1.62241
Spine1  -3.82989 -3.51588 8.62644
HEad  -43.1351 16.704 -0.958204
LeftShoulder1  -3.88251e-019 9.70628e-020 -3.87848e-018
LeftArm  -28.4093 67.243 -78.3414
LeftForeArm  -18.6964 -25.5078 3.35075
LeftHand  -1.04366 0.33726 25.8619
RightShoulder  5.70063 9.51852 27.9669
RightArm  99.3322 -62.6178 -72.3171
RightForeArm  -42.2526 64.3071 -60.9279
RightHand  -3.3032 8.63701 -26.7414
LeftUpLeg  -53.1835 -2.68367 -0.460046
LeftLeg  54.4236 -4.6317 14.829
LeftFoot  -22.5901 -0.391252 -3.91369
LeftToes  5.79026e-011 9.70705e-012 -3.73859e-011
344
root  -8.20938 33.9371 39.1517 20.5688 -11.4673 -1.36169
RightUpLeg  -57.4604 -6.29629 11.3216
RightLeg  58.6652 12.8684 -6.43444
RightFoot  -23.8643 -0.175099 -2.72568
RightToes  -5.82073e-011 -3.18055e-015 -2.98177e-016
Spine  28.8301 -0.747255 1.71084
Spine1  -5.37369 -3.5398 10.1153
HEad  -44.424 17.9154 0.164795
LeftShoulder1  -3.88251e-019 9.70628e-020 -3.87848e-018
LeftArm  -32.2783 59.9832 -74.6432
LeftForeArm  -13.554 -10.6034 -3.1414
LeftHand  -0.044017 4.63471 22.7418
RightShoulder  5.51724 9.28907 27.3994
RightArm  84.951 -67.0916 -59.6319
RightForeArm  -35.4037 60.569 -48.1611
RightHand  -3.0427 7.0708 -27.7475
LeftUpLeg  -55.6161 -2.46988 -0.208079
LeftLeg  59.6489 -5.92586 15.7325
LeftFoot  -25.5055 -0.675235 -5.5862
LeftToes  5.79026e-011 9.70705e-012 -3.73859e-011
345
root  -8.30411 33.1504 39.3818 19.3146 -10.9932 -1.35519
RightUpLeg  -58.1816 -6.6097 11.3867
RightLeg  63.3047 13.0086 -7.43048
RightFoot  -26.6235 -0.202271 -2.47848
RightToes  -5.82073e-011 -3.18055e-015 -2.98177e-016
Spine  30.4121 -0.90756 1.81601
Spine1  -7.34797 -3.58879 11.5696
HEad  -44.7481 18.5498 1.13206
LeftShoulder1  -3.88251e-019 9.70628e-020 -3.87848e-018
LeftArm  -34.4936 52.1292 -74.7092
LeftForeArm  -22.6665 0.530955 -2.48153
LeftHand  0.396529 6.80181 25.7209
RightShoulder  5.33637 9.08025 26.7883
RightArm  53.6764 -68.0319 -27.0768
RightForeArm  -30.6544 52.8726 -34.0122
RightHand  -2.99106 5.37113 -31.2127
LeftUpLeg  -56.1562 -3.49179 0.313181
LeftLeg  63.9923 -6.89532 16.8355
LeftFoot  -27.4567 -0.861677 -6.26371
LeftToes  5.79026e-011 9.70705e-012 -3.73859e-011
